<svg width="69" height="51" viewBox="0 0 69 51" fill="none" xmlns="http://www.w3.org/2000/svg">
<g clip-path="url(#clip0_252_963)">
<path d="M66.6854 51.0176H2.30877C1.72097 51.0398 1.14828 50.8284 0.715711 50.4294C0.283143 50.0304 0.025828 49.4764 0 48.8882V8.3772C0 7.08436 1.22162 6.62222 2.02823 6.30047C2.67117 6.05477 3.15045 5.82077 3.61804 5.60432L4.06812 5.38788C4.25007 5.32167 4.45023 5.32635 4.62889 5.40098C4.80756 5.47561 4.95165 5.61473 5.03259 5.79074C5.11353 5.96676 5.1254 6.16681 5.06584 6.35117C5.00628 6.53554 4.87964 6.69076 4.71105 6.78603L4.27853 6.99076C3.81093 7.21306 3.28491 7.47048 2.58351 7.73958C1.99901 7.96187 1.53723 8.16075 1.53723 8.3772V48.8707C1.56744 49.0481 1.66404 49.2073 1.80736 49.316C1.95068 49.4246 2.12997 49.4746 2.30877 49.4557H66.6854C66.8642 49.4746 67.0435 49.4246 67.1868 49.316C67.3301 49.2073 67.4267 49.0481 67.4569 48.8707V8.3772C67.4569 8.19 67.1588 8.00868 66.4282 7.74543C65.6976 7.48218 65.1189 7.22477 64.6221 7.00247L64.1954 6.81527C64.1018 6.77417 64.0172 6.71501 63.9464 6.64117C63.8756 6.56733 63.82 6.48025 63.7828 6.38491C63.7456 6.28958 63.7276 6.18788 63.7297 6.08556C63.7318 5.98324 63.754 5.88232 63.7951 5.7886C63.8361 5.69488 63.8952 5.61017 63.969 5.5393C64.0428 5.46844 64.1298 5.41281 64.225 5.3756C64.3203 5.33839 64.422 5.32033 64.5242 5.32243C64.6264 5.32454 64.7272 5.34678 64.8209 5.38788L65.2592 5.58094C65.7561 5.80324 66.2704 6.03139 66.9543 6.27708C67.6381 6.52278 69.0058 7.00833 69.0058 8.35967V48.8531C68.9976 49.1484 68.9308 49.4391 68.8093 49.7083C68.6878 49.9775 68.514 50.2199 68.2981 50.4213C68.0822 50.6227 67.8284 50.7791 67.5516 50.8815C67.2747 50.9839 66.9803 51.0301 66.6854 51.0176V51.0176Z" fill="#E1AE2E"/>
<path d="M63.2193 45.7116C62.9505 45.7094 62.686 45.6433 62.4478 45.5186C60.6943 44.5943 56.6028 43.0323 49.1621 43.0323C41.5637 43.0323 37.665 44.3369 35.9992 45.1149C35.5409 45.3261 35.0425 45.4359 34.538 45.4367C34.0613 45.4394 33.5893 45.3417 33.1527 45.15C31.3408 44.3603 27.1733 43.0323 19.6333 43.0323C12.3329 43.0323 8.29986 44.5826 6.55221 45.5069C6.31288 45.6342 6.04586 45.7005 5.77481 45.6999V45.6999C5.47179 45.7008 5.17443 45.6178 4.91562 45.4601C4.67052 45.3124 4.46755 45.1041 4.32627 44.8551C4.18499 44.6061 4.11018 44.3249 4.10901 44.0386V5.21234C4.10991 4.83659 4.20121 4.46658 4.37518 4.13361C4.54915 3.80064 4.8007 3.5145 5.10851 3.29939C6.86201 2.0709 11.0704 0 19.4287 0C28.6989 0 33.1644 1.75501 34.4795 2.39265C35.7304 1.73161 39.8744 0 49.1796 0C57.6549 0 62.0386 2.06505 63.8506 3.29939C64.1681 3.51282 64.4285 3.80098 64.6088 4.13857C64.7892 4.47617 64.8841 4.85289 64.8851 5.23573V44.0444C64.8836 44.4861 64.7076 44.9093 64.3955 45.2216C64.0834 45.534 63.6606 45.7101 63.2193 45.7116V45.7116ZM49.1913 41.4938C56.9476 41.4938 61.2905 43.1611 63.1901 44.1556C63.209 44.1658 63.2303 44.1709 63.2518 44.1703C63.2734 44.1698 63.2943 44.1635 63.3127 44.1523C63.3311 44.141 63.3461 44.1251 63.3564 44.1062C63.3667 44.0872 63.3718 44.066 63.3713 44.0444V5.23573C63.3711 5.10591 63.3397 4.97804 63.2797 4.86296C63.2196 4.74789 63.1328 4.64899 63.0264 4.57468C61.6587 3.66208 57.5789 1.53854 49.2089 1.53854C38.5359 1.53854 34.9997 3.87853 34.9646 3.87853C34.8394 3.9601 34.6932 4.00353 34.5438 4.00353C34.3944 4.00353 34.2482 3.9601 34.123 3.87853C34.0879 3.87853 30.0315 1.48591 19.4579 1.48591C11.2224 1.48591 7.31206 3.59774 6.01448 4.51034C5.91084 4.58376 5.82643 4.68111 5.76843 4.79416C5.71043 4.9072 5.68055 5.0326 5.68131 5.15967V43.9859C5.68173 44.0069 5.68728 44.0275 5.69747 44.0458C5.70766 44.0642 5.72216 44.0797 5.73975 44.0912C5.75763 44.104 5.77912 44.111 5.80114 44.111C5.82316 44.111 5.84462 44.104 5.8625 44.0912C7.73874 43.0967 12.0289 41.4353 19.6625 41.4353C27.4831 41.4353 31.8727 42.8393 33.7957 43.6817C34.0391 43.7872 34.3019 43.841 34.5672 43.8396C34.8478 43.8375 35.1247 43.7756 35.3797 43.6583C37.1273 42.8861 41.2889 41.4938 49.1621 41.4938H49.1913Z" fill="#E1AE2E"/>
<path d="M34.4971 45.4073C34.2935 45.4073 34.0981 45.3268 33.9536 45.1832C33.8091 45.0396 33.7271 44.8447 33.7256 44.6409V3.27586C33.7256 3.07106 33.8069 2.87463 33.9516 2.72982C34.0963 2.58501 34.2925 2.50366 34.4971 2.50366C34.7018 2.50366 34.898 2.58501 35.0427 2.72982C35.1874 2.87463 35.2687 3.07106 35.2687 3.27586V44.6409C35.2671 44.8447 35.1852 45.0396 35.0406 45.1832C34.8961 45.3268 34.7007 45.4073 34.4971 45.4073V45.4073Z" fill="#E1AE2E"/>
<path d="M16.4127 35.0297C12.6486 35.0297 9.58582 32.6897 9.58582 29.7647C9.58582 26.8397 12.6486 24.4998 16.4127 24.4998C20.1769 24.4998 23.2397 26.8397 23.2397 29.7647C23.2397 32.6897 20.1769 35.0297 16.4127 35.0297ZM16.4127 26.0851C13.4903 26.0851 11.1523 27.7465 11.1523 29.7881C11.1523 31.8298 13.5253 33.4912 16.4127 33.4912C19.3002 33.4912 21.7024 31.8298 21.7024 29.7881C21.7024 27.7465 19.3294 26.0851 16.4127 26.0851Z" fill="#E1AE2E"/>
<path d="M22.4681 30.4256C22.3673 30.4257 22.2675 30.4056 22.1746 30.3667C22.0816 30.3277 21.9973 30.2706 21.9266 30.1988C21.8559 30.1269 21.8002 30.0417 21.7627 29.9481C21.7252 29.8545 21.7067 29.7543 21.7082 29.6534L21.8193 9.98587C21.8185 9.6518 21.9184 9.3253 22.1059 9.04892C22.2934 8.77255 22.5598 8.55915 22.8703 8.43661C23.1808 8.31407 23.5211 8.28807 23.8466 8.36199C24.1721 8.43591 24.4677 8.6063 24.695 8.85097L29.9146 14.3851C29.9837 14.4584 30.0376 14.5447 30.0734 14.6389C30.1092 14.7332 30.126 14.8335 30.123 14.9343C30.1201 15.0351 30.0973 15.1342 30.056 15.2262C30.0147 15.3182 29.9557 15.4011 29.8824 15.4702C29.8091 15.5393 29.7229 15.5934 29.6288 15.6292C29.5346 15.665 29.4343 15.6819 29.3337 15.6789C29.233 15.6759 29.1339 15.6531 29.042 15.6117C28.9501 15.5704 28.8673 15.5114 28.7982 15.438L23.5728 9.90981C23.5571 9.89034 23.5355 9.87643 23.5113 9.87011C23.4871 9.86379 23.4616 9.86541 23.4383 9.87472C23.4147 9.88395 23.3943 9.89999 23.3797 9.92081C23.3652 9.94163 23.3571 9.96631 23.3565 9.99172L23.2455 29.6652C23.2424 29.8689 23.1589 30.0632 23.0133 30.2057C22.8677 30.3482 22.6717 30.4272 22.4681 30.4256Z" fill="#E1AE2E"/>
<path d="M58.894 10.4246C58.7936 10.4256 58.6941 10.4057 58.6018 10.3661C52.5478 7.91065 45.7765 7.91065 39.7225 10.3661C39.5332 10.4419 39.3218 10.4401 39.1337 10.3614C38.9457 10.2826 38.7961 10.133 38.7172 9.9449C38.6781 9.85125 38.658 9.7508 38.6581 9.64933C38.6581 9.54785 38.6783 9.4474 38.7175 9.3538C38.7566 9.26019 38.814 9.17529 38.8862 9.10404C38.9583 9.03279 39.044 8.97659 39.138 8.93872C45.5652 6.33325 52.7532 6.33325 59.1804 8.93872C59.3449 9.00667 59.4808 9.12938 59.5652 9.2861C59.6495 9.44282 59.6772 9.62391 59.6435 9.79872C59.6098 9.97353 59.5168 10.1313 59.3803 10.2454C59.2437 10.3594 59.0719 10.4227 58.894 10.4246V10.4246Z" fill="#E1AE2E"/>
<path d="M58.8941 19.1119C58.7937 19.1129 58.6941 19.0929 58.6018 19.0534C52.5466 16.6041 45.7777 16.6041 39.7225 19.0534C39.6293 19.0918 39.5294 19.1114 39.4285 19.1112C39.3277 19.111 39.2279 19.0909 39.1348 19.052C39.0417 19.0132 38.9572 18.9564 38.886 18.8848C38.8149 18.8133 38.7585 18.7285 38.7201 18.6351C38.6817 18.5418 38.6621 18.4418 38.6624 18.3408C38.6626 18.2399 38.6827 18.14 38.7215 18.0468C38.7603 17.9537 38.8171 17.8691 38.8885 17.7979C38.96 17.7267 39.0448 17.6702 39.138 17.6318C45.5653 15.0264 52.7533 15.0264 59.1805 17.6318C59.2745 17.6697 59.3602 17.7259 59.4324 17.7972C59.5046 17.8684 59.5619 17.9533 59.601 18.0469C59.6402 18.1405 59.6604 18.241 59.6604 18.3424C59.6605 18.4439 59.6404 18.5444 59.6013 18.638C59.5429 18.7777 59.4446 18.8971 59.3189 18.9814C59.1931 19.0656 59.0454 19.111 58.8941 19.1119V19.1119Z" fill="#E1AE2E"/>
<path d="M58.894 27.805C58.7936 27.8059 58.6941 27.786 58.6018 27.7464C52.5478 25.291 45.7765 25.291 39.7225 27.7464C39.5332 27.8222 39.3218 27.8205 39.1337 27.7417C38.9457 27.663 38.7961 27.5134 38.7172 27.3253C38.6781 27.2316 38.658 27.1311 38.6581 27.0297C38.6581 26.9282 38.6783 26.8277 38.7175 26.7341C38.7566 26.6405 38.814 26.5556 38.8862 26.4844C38.9583 26.4131 39.044 26.357 39.138 26.3191C45.5652 23.7136 52.7532 23.7136 59.1804 26.3191C59.3449 26.387 59.4808 26.5098 59.5652 26.6665C59.6495 26.8232 59.6772 27.0043 59.6435 27.1791C59.6098 27.3539 59.5168 27.5117 59.3803 27.6257C59.2437 27.7398 59.0719 27.8031 58.894 27.805V27.805Z" fill="#E1AE2E"/>
<path d="M58.894 36.492C58.7936 36.493 58.694 36.4731 58.6017 36.4335C52.5465 33.9842 45.7776 33.9842 39.7224 36.4335C39.5341 36.5111 39.3227 36.5106 39.1347 36.4321C38.9467 36.3537 38.7975 36.2037 38.72 36.0152C38.6425 35.8267 38.643 35.6151 38.7214 35.427C38.7997 35.2388 38.9496 35.0895 39.1379 35.012C45.5652 32.4065 52.7532 32.4065 59.1804 35.012C59.2742 35.0492 59.3597 35.1048 59.4319 35.1755C59.504 35.2462 59.5613 35.3306 59.6005 35.4238C59.6397 35.5169 59.6599 35.6169 59.6601 35.718C59.6602 35.819 59.6402 35.9191 59.6012 36.0123C59.5437 36.1531 59.4458 36.2737 59.32 36.3591C59.1942 36.4444 59.046 36.4906 58.894 36.492V36.492Z" fill="#E1AE2E"/>
</g>
<defs>
<clipPath id="clip0_252_963">
<rect width="69" height="51" fill="white"/>
</clipPath>
</defs>
</svg>
